<svg width="80" height="80" viewBox="0 0 80 80" fill="none" xmlns="http://www.w3.org/2000/svg">
<rect width="80" height="80" rx="15" fill="white"/>
<g filter="url(#filter0_d_69_36002)">
<path d="M57.5 37.5204C57 33.3052 53.25 30.0817 48.75 30.0817C47.5 30.0817 46.5 30.3297 45.5 30.8256C43.25 27.3542 39.25 25.1226 35 25.1226C28 25.1226 22.5 30.5776 22.5 37.5204V37.7684C18.25 38.2643 15 41.9837 15 46.1989C15 50.9101 19 54.8774 23.75 54.8774H56.25C61 54.8774 65 50.9101 65 46.1989C65 41.7357 61.75 38.2643 57.5 37.5204Z" fill="url(#paint0_linear_69_36002)"/>
<g clip-path="url(#clip0_69_36002)">
<path fill-rule="evenodd" clip-rule="evenodd" d="M45.0427 42.7429C44.1286 42.7429 43.2707 42.9258 42.549 43.2359C45.0747 43.9596 46.8628 45.6933 46.9109 47.7212C48.2259 47.5542 49.6451 47.0611 49.6451 45.7171C49.6451 44.1027 47.5363 42.7429 45.0427 42.7429ZM45.0186 41.5977H45.0347C46.7425 41.5977 48.1377 40.2139 48.1377 38.528C48.1355 37.7124 47.8079 36.9308 47.2265 36.3541C46.645 35.7774 45.857 35.4525 45.0347 35.4504C44.6979 35.4504 44.3772 35.506 44.0725 35.6015C44.6451 36.4421 44.9496 37.434 44.9465 38.4485C44.9563 39.5142 44.6188 40.5546 43.9843 41.4148C44.313 41.5341 44.6578 41.5977 45.0186 41.5977ZM37.1448 43.228C36.4232 42.9258 35.5653 42.7429 34.6592 42.7429C32.1656 42.7429 30.0569 44.1027 30.0569 45.7171C30.0569 47.0611 31.468 47.5462 32.783 47.7212C32.8231 45.6933 34.6111 43.9596 37.1448 43.228ZM34.6592 41.5977H34.6833C35.0441 41.5977 35.3889 41.5341 35.7176 41.4148C35.0843 40.5536 34.7444 39.5144 34.7474 38.4485C34.7474 37.3908 35.0682 36.4126 35.6214 35.6015C35.3167 35.506 34.996 35.4504 34.6592 35.4504C33.8377 35.4525 33.0505 35.7776 32.4703 36.3546C31.8901 36.9315 31.5643 37.7131 31.5643 38.528C31.5643 40.2139 32.9514 41.5977 34.6592 41.5977Z" fill="white"/>
<path fill-rule="evenodd" clip-rule="evenodd" d="M39.847 44.0447C36.671 44.0447 33.9873 45.7593 33.9873 47.7888C33.9873 50.4131 38.3973 50.4131 39.847 50.4131C42.363 50.4131 45.7082 50.1427 45.7082 47.8055C45.7082 45.7664 43.0237 44.0447 39.847 44.0447ZM39.8478 42.319H39.8734C40.3842 42.3188 40.8898 42.2179 41.361 42.0223C41.8321 41.8266 42.2594 41.5401 42.618 41.1794C42.9791 40.8217 43.2649 40.3963 43.4587 39.928C43.6526 39.4597 43.7505 38.9579 43.747 38.4517C43.7459 37.426 43.3347 36.4427 42.6036 35.7174C41.8724 34.992 40.881 34.584 39.847 34.5827C38.8131 34.5844 37.8222 34.9927 37.0914 35.7179C36.3606 36.4432 35.9496 37.4263 35.9486 38.4517C35.95 39.4769 36.3613 40.4597 37.0922 41.1846C37.8232 41.9096 38.8141 42.3175 39.8478 42.319Z" fill="white"/>
</g>
</g>
<defs>
<filter id="filter0_d_69_36002" x="0" y="10.1226" width="80" height="59.7548" filterUnits="userSpaceOnUse" color-interpolation-filters="sRGB">
<feFlood flood-opacity="0" result="BackgroundImageFix"/>
<feColorMatrix in="SourceAlpha" type="matrix" values="0 0 0 0 0 0 0 0 0 0 0 0 0 0 0 0 0 0 127 0" result="hardAlpha"/>
<feOffset/>
<feGaussianBlur stdDeviation="7.5"/>
<feComposite in2="hardAlpha" operator="out"/>
<feColorMatrix type="matrix" values="0 0 0 0 0.486275 0 0 0 0 0.227451 0 0 0 0 0.929412 0 0 0 0.5 0"/>
<feBlend mode="normal" in2="BackgroundImageFix" result="effect1_dropShadow_69_36002"/>
<feBlend mode="normal" in="SourceGraphic" in2="effect1_dropShadow_69_36002" result="shape"/>
</filter>
<linearGradient id="paint0_linear_69_36002" x1="10.5684" y1="14.1629" x2="58.565" y2="67.1951" gradientUnits="userSpaceOnUse">
<stop stop-color="#EDE9FE"/>
<stop offset="1" stop-color="#7C3AED"/>
</linearGradient>
<clipPath id="clip0_69_36002">
<rect width="20.0452" height="19.8814" fill="white" transform="translate(30.0288 32.5572)"/>
</clipPath>
</defs>
</svg>
